<svg width="808" height="365" viewBox="0 0 808 365" fill="none" xmlns="http://www.w3.org/2000/svg">
<g filter="url(#filter0_d)">
<rect x="38" y="31" width="732" height="288" rx="7.51481" fill="white"/>
<rect x="38.5" y="31.5" width="731" height="287" rx="7.01481" stroke="#BDBDBD" stroke-opacity="0.25"/>
</g>
<rect x="70.1855" y="303" width="46.8995" height="3" rx="1.5" fill="#1C75BB"/>
<g opacity="0.5">
<path opacity="0.2" d="M91.6211 106.967H748.899" stroke="#979797" stroke-width="0.751481" stroke-linecap="square"/>
<path opacity="0.2" d="M91.6211 59.6795H748.899" stroke="#979797" stroke-width="0.751481" stroke-linecap="square"/>
<path opacity="0.2" d="M91.2744 154.255H748.552" stroke="#979797" stroke-width="0.751481" stroke-linecap="square"/>
<path opacity="0.2" d="M91.2744 200.792H748.552" stroke="#979797" stroke-width="0.751481" stroke-linecap="square"/>
<path opacity="0.2" d="M91.2744 247.329H748.552" stroke="#979797" stroke-width="0.751481" stroke-linecap="square"/>
</g>
<path d="M747.084 135.59C747.084 135.59 687.946 168.78 653.404 171.488C618.862 174.195 608.017 143.45 557.643 130.506C507.268 117.563 492.188 138.594 462.91 148.171C433.302 157.857 400.593 118.273 368.642 106.298C336.691 94.3241 323.118 131.182 282.499 148.171C241.881 165.16 243.456 195.214 188.563 206.805C133.671 218.396 91.1123 168.78 91.1123 168.78" stroke="#1B75BB" stroke-width="1.50296"/>
<path d="M748.85 99.0027C748.85 99.0027 691.22 114.285 656.733 116.99C622.246 119.695 607.844 151.263 557.549 138.332C507.255 125.4 503.184 112.492 473.953 122.061C444.392 131.737 411.962 110.966 380.062 99.0027C348.162 87.0393 333.662 113.557 293.108 130.531C252.554 147.504 254.782 146.343 199.977 157.924C145.172 169.505 89.4979 138.332 89.4979 138.332" stroke="#B3B3B3" stroke-width="1.50296" stroke-linecap="round" stroke-linejoin="round" stroke-dasharray="0.75 7.51"/>
<path d="M93.2467 268.508H95.5073L94.6935 266.338C94.5835 266.04 94.4754 265.703 94.369 265.327C94.3052 265.618 94.2059 265.955 94.0712 266.338L93.2467 268.508ZM97.4752 271.465H96.6349L95.7626 269.242H92.9595L92.0979 271.465H91.2734L94.0393 264.439H94.7254L97.4752 271.465ZM101.729 270.348C101.988 269.983 102.117 269.476 102.117 268.827C102.117 268.178 101.989 267.678 101.734 267.327C101.479 266.976 101.117 266.801 100.649 266.801C100.117 266.801 99.7307 266.948 99.4896 267.242C99.2484 267.536 99.1243 268.01 99.1172 268.662V268.838C99.1172 269.575 99.2396 270.104 99.4842 270.423C99.7289 270.738 100.123 270.896 100.665 270.896C101.119 270.896 101.473 270.714 101.729 270.348ZM102.372 266.838C102.752 267.313 102.942 267.981 102.942 268.843C102.942 269.705 102.748 270.373 102.362 270.848C101.979 271.323 101.434 271.561 100.729 271.561C100.027 271.561 99.4896 271.304 99.1172 270.79H99.0587C99.0977 271.113 99.1172 271.403 99.1172 271.662V273.822H98.3194V266.221H98.9683L99.08 266.939H99.1172C99.5002 266.396 100.043 266.125 100.745 266.125C101.45 266.125 101.993 266.363 102.372 266.838ZM106.713 266.125C106.954 266.125 107.163 266.143 107.341 266.178L107.234 266.918C107.025 266.872 106.834 266.849 106.66 266.849C106.234 266.849 105.871 267.021 105.569 267.364C105.268 267.708 105.117 268.137 105.117 268.652V271.465H104.32V266.221H104.979L105.069 267.189H105.107C105.302 266.845 105.536 266.583 105.809 266.402C106.085 266.217 106.387 266.125 106.713 266.125ZM115.418 267.987C115.418 270.37 114.652 271.561 113.12 271.561C112.351 271.561 111.769 271.256 111.376 270.646C110.986 270.033 110.791 269.127 110.791 267.928C110.791 266.73 110.98 265.836 111.36 265.248C111.739 264.655 112.312 264.359 113.078 264.359C113.847 264.359 114.429 264.666 114.822 265.279C115.219 265.893 115.418 266.795 115.418 267.987ZM111.95 265.737C111.712 266.198 111.594 266.939 111.594 267.96C111.594 268.978 111.712 269.719 111.95 270.183C112.191 270.644 112.574 270.875 113.099 270.875C113.627 270.875 114.01 270.643 114.248 270.178C114.485 269.71 114.604 268.971 114.604 267.96C114.604 266.95 114.484 266.212 114.242 265.748C114.005 265.279 113.622 265.045 113.094 265.045C112.569 265.045 112.188 265.276 111.95 265.737ZM119.331 264.466V271.465H118.56V266.476C118.56 266.037 118.572 265.645 118.597 265.301C118.53 265.368 118.451 265.441 118.363 265.519C118.274 265.593 117.897 265.902 117.23 266.444L116.81 265.896L118.661 264.466H119.331Z" fill="#BDBDBD"/>
<path d="M76.9443 245.469C76.9443 247.852 76.1784 249.043 74.6466 249.043C73.8771 249.043 73.2956 248.738 72.902 248.128C72.5119 247.515 72.3169 246.609 72.3169 245.41C72.3169 244.212 72.5066 243.318 72.886 242.73C73.2655 242.137 73.8381 241.841 74.604 241.841C75.3735 241.841 75.955 242.148 76.3486 242.761C76.7458 243.375 76.9443 244.277 76.9443 245.469ZM73.4764 243.219C73.2389 243.68 73.1201 244.421 73.1201 245.442C73.1201 246.46 73.2389 247.201 73.4764 247.665C73.7176 248.126 74.1005 248.357 74.6253 248.357C75.1537 248.357 75.5366 248.125 75.7742 247.66C76.0118 247.192 76.1306 246.453 76.1306 245.442C76.1306 244.432 76.01 243.694 75.7689 243.229C75.5313 242.761 75.1483 242.527 74.62 242.527C74.0952 242.527 73.714 242.758 73.4764 243.219Z" fill="#BDBDBD"/>
<path d="M71.2264 204.673V205.413H66.6255V204.726L68.4659 202.875C69.0368 202.301 69.4073 201.897 69.5775 201.663C69.9356 201.177 70.1147 200.693 70.1147 200.211C70.1147 199.835 70.0012 199.539 69.7743 199.322C69.5474 199.103 69.2336 198.993 68.8329 198.993C68.5386 198.993 68.2638 199.041 68.0084 199.136C67.7531 199.229 67.4624 199.402 67.1361 199.658L66.716 199.12C67.3613 198.581 68.0634 198.312 68.8222 198.312C69.4747 198.312 69.9888 198.48 70.3647 198.817C70.7406 199.151 70.9285 199.603 70.9285 200.174C70.9285 200.624 70.8009 201.069 70.5455 201.509C70.2938 201.945 69.831 202.489 69.1573 203.141L67.6255 204.636V204.673H71.2264ZM74.4213 201.136C75.1624 201.136 75.7439 201.319 76.1659 201.684C76.5878 202.049 76.7988 202.551 76.7988 203.189C76.7988 203.916 76.5666 204.485 76.102 204.897C75.6411 205.304 75.0117 205.508 74.2138 205.508C73.4196 205.508 72.8132 205.382 72.3948 205.131V204.365C72.6182 204.51 72.8983 204.624 73.2352 204.705C73.572 204.783 73.8965 204.822 74.2085 204.822C74.7723 204.822 75.2085 204.689 75.517 204.423C75.829 204.157 75.985 203.776 75.985 203.28C75.985 202.301 75.3858 201.812 74.1872 201.812C73.8929 201.812 73.4887 201.858 72.9745 201.95L72.5597 201.689L72.8256 198.413H76.3042V199.147H73.5011L73.3256 201.248C73.6908 201.173 74.0561 201.136 74.4213 201.136Z" fill="#BDBDBD"/>
<path d="M68.4278 154.599C69.1689 154.599 69.7504 154.782 70.1724 155.147C70.5944 155.512 70.8053 156.014 70.8053 156.652C70.8053 157.379 70.5731 157.948 70.1086 158.36C69.6476 158.767 69.0182 158.971 68.2204 158.971C67.4261 158.971 66.8197 158.845 66.4013 158.594V157.828C66.6247 157.973 66.9048 158.087 67.2417 158.168C67.5786 158.246 67.903 158.285 68.2151 158.285C68.7789 158.285 69.215 158.152 69.5235 157.886C69.8355 157.62 69.9916 157.239 69.9916 156.743C69.9916 155.764 69.3923 155.275 68.1938 155.275C67.8995 155.275 67.4952 155.321 66.9811 155.413L66.5662 155.152L66.8321 151.876H70.3107V152.61H67.5076L67.3321 154.711C67.6973 154.636 68.0626 154.599 68.4278 154.599ZM76.4895 155.397C76.4895 157.78 75.7236 158.971 74.1917 158.971C73.4223 158.971 72.8407 158.666 72.4471 158.056C72.0571 157.443 71.8621 156.537 71.8621 155.338C71.8621 154.14 72.0518 153.246 72.4312 152.658C72.8106 152.066 73.3833 151.769 74.1492 151.769C74.9187 151.769 75.5002 152.076 75.8938 152.69C76.2909 153.303 76.4895 154.206 76.4895 155.397ZM73.0216 153.147C72.784 153.608 72.6652 154.349 72.6652 155.37C72.6652 156.388 72.784 157.129 73.0216 157.594C73.2627 158.055 73.6457 158.285 74.1705 158.285C74.6988 158.285 75.0818 158.053 75.3193 157.588C75.5569 157.12 75.6757 156.381 75.6757 155.37C75.6757 154.36 75.5551 153.622 75.314 153.158C75.0764 152.69 74.6935 152.456 74.1651 152.456C73.6403 152.456 73.2592 152.686 73.0216 153.147Z" fill="#BDBDBD"/>
<path d="M66.5989 105.322V104.588H71.253V105.226L68.3914 111.587H67.5085L70.4126 105.322H66.5989ZM74.4213 107.311C75.1624 107.311 75.7439 107.494 76.1659 107.859C76.5878 108.224 76.7988 108.726 76.7988 109.364C76.7988 110.091 76.5666 110.66 76.102 111.071C75.6411 111.479 75.0117 111.683 74.2138 111.683C73.4196 111.683 72.8132 111.557 72.3948 111.306V110.54C72.6182 110.685 72.8983 110.798 73.2352 110.88C73.572 110.958 73.8965 110.997 74.2085 110.997C74.7723 110.997 75.2085 110.864 75.517 110.598C75.829 110.332 75.985 109.951 75.985 109.455C75.985 108.476 75.3858 107.987 74.1872 107.987C73.8929 107.987 73.4887 108.033 72.9745 108.125L72.5597 107.864L72.8256 104.588H76.3042V105.322H73.5011L73.3256 107.423C73.6908 107.348 74.0561 107.311 74.4213 107.311Z" fill="#BDBDBD"/>
<path d="M63.423 58.0507V65.0503H62.6518V60.0612C62.6518 59.6215 62.6642 59.2297 62.689 58.8857C62.6216 58.9531 62.5436 59.0258 62.455 59.1038C62.3663 59.1783 61.9887 59.4868 61.3221 60.0293L60.9019 59.4814L62.7528 58.0507H63.423ZM70.7294 61.5718C70.7294 63.9546 69.9635 65.146 68.4317 65.146C67.6622 65.146 67.0807 64.8411 66.6871 64.2312C66.297 63.6177 66.102 62.7118 66.102 61.5132C66.102 60.3147 66.2917 59.4212 66.6711 58.8325C67.0505 58.2404 67.6232 57.9443 68.3891 57.9443C69.1586 57.9443 69.7401 58.251 70.1337 58.8644C70.5308 59.4779 70.7294 60.3803 70.7294 61.5718ZM67.2615 59.3219C67.0239 59.7828 66.9051 60.5239 66.9051 61.5452C66.9051 62.5628 67.0239 63.3039 67.2615 63.7684C67.5026 64.2294 67.8856 64.4599 68.4104 64.4599C68.9387 64.4599 69.3217 64.2276 69.5593 63.7631C69.7968 63.2951 69.9156 62.5557 69.9156 61.5452C69.9156 60.5346 69.7951 59.797 69.5539 59.3325C69.3164 58.8644 68.9334 58.6304 68.4051 58.6304C67.8803 58.6304 67.4991 58.8609 67.2615 59.3219ZM76.3391 61.5718C76.3391 63.9546 75.5732 65.146 74.0413 65.146C73.2719 65.146 72.6904 64.8411 72.2968 64.2312C71.9067 63.6177 71.7117 62.7118 71.7117 61.5132C71.7117 60.3147 71.9014 59.4212 72.2808 58.8325C72.6602 58.2404 73.2329 57.9443 73.9988 57.9443C74.7683 57.9443 75.3498 58.251 75.7434 58.8644C76.1405 59.4779 76.3391 60.3803 76.3391 61.5718ZM72.8712 59.3219C72.6336 59.7828 72.5148 60.5239 72.5148 61.5452C72.5148 62.5628 72.6336 63.3039 72.8712 63.7684C73.1123 64.2294 73.4953 64.4599 74.0201 64.4599C74.5484 64.4599 74.9314 64.2276 75.1689 63.7631C75.4065 63.2951 75.5253 62.5557 75.5253 61.5452C75.5253 60.5346 75.4048 59.797 75.1636 59.3325C74.9261 58.8644 74.5431 58.6304 74.0148 58.6304C73.49 58.6304 73.1088 58.8609 72.8712 59.3219Z" fill="#BDBDBD"/>
<path d="M179.731 268.508H181.992L181.178 266.338C181.068 266.04 180.96 265.703 180.853 265.327C180.79 265.618 180.69 265.955 180.556 266.338L179.731 268.508ZM183.96 271.465H183.119L182.247 269.242H179.444L178.582 271.465H177.758L180.524 264.439H181.21L183.96 271.465ZM188.213 270.348C188.472 269.983 188.601 269.476 188.601 268.827C188.601 268.178 188.474 267.678 188.218 267.327C187.963 266.976 187.602 266.801 187.133 266.801C186.602 266.801 186.215 266.948 185.974 267.242C185.733 267.536 185.609 268.01 185.602 268.662V268.838C185.602 269.575 185.724 270.104 185.969 270.423C186.213 270.738 186.607 270.896 187.149 270.896C187.603 270.896 187.958 270.714 188.213 270.348ZM188.857 266.838C189.236 267.313 189.426 267.981 189.426 268.843C189.426 269.705 189.233 270.373 188.846 270.848C188.463 271.323 187.919 271.561 187.213 271.561C186.511 271.561 185.974 271.304 185.602 270.79H185.543C185.582 271.113 185.602 271.403 185.602 271.662V273.822H184.804V266.221H185.453L185.564 266.939H185.602C185.985 266.396 186.527 266.125 187.229 266.125C187.935 266.125 188.477 266.363 188.857 266.838ZM193.197 266.125C193.438 266.125 193.648 266.143 193.825 266.178L193.719 266.918C193.509 266.872 193.318 266.849 193.144 266.849C192.719 266.849 192.355 267.021 192.054 267.364C191.752 267.708 191.602 268.137 191.602 268.652V271.465H190.804V266.221H191.463L191.554 267.189H191.591C191.786 266.845 192.02 266.583 192.293 266.402C192.57 266.217 192.871 266.125 193.197 266.125ZM201.902 267.987C201.902 270.37 201.136 271.561 199.605 271.561C198.835 271.561 198.254 271.256 197.86 270.646C197.47 270.033 197.275 269.127 197.275 267.928C197.275 266.73 197.465 265.836 197.844 265.248C198.223 264.655 198.796 264.359 199.562 264.359C200.331 264.359 200.913 264.666 201.307 265.279C201.704 265.893 201.902 266.795 201.902 267.987ZM198.434 265.737C198.197 266.198 198.078 266.939 198.078 267.96C198.078 268.978 198.197 269.719 198.434 270.183C198.676 270.644 199.058 270.875 199.583 270.875C200.112 270.875 200.495 270.643 200.732 270.178C200.97 269.71 201.089 268.971 201.089 267.96C201.089 266.95 200.968 266.212 200.727 265.748C200.489 265.279 200.106 265.045 199.578 265.045C199.053 265.045 198.672 265.276 198.434 265.737ZM207.475 270.726V271.465H202.874V270.779L204.714 268.928C205.285 268.354 205.656 267.95 205.826 267.716C206.184 267.23 206.363 266.746 206.363 266.263C206.363 265.888 206.25 265.592 206.023 265.375C205.796 265.155 205.482 265.045 205.081 265.045C204.787 265.045 204.512 265.093 204.257 265.189C204.002 265.281 203.711 265.455 203.385 265.71L202.964 265.173C203.61 264.634 204.312 264.365 205.071 264.365C205.723 264.365 206.237 264.533 206.613 264.87C206.989 265.203 207.177 265.655 207.177 266.226C207.177 266.677 207.049 267.122 206.794 267.561C206.542 267.997 206.079 268.542 205.406 269.194L203.874 270.689V270.726H207.475Z" fill="#BDBDBD"/>
<path d="M268.291 268.508H270.551L269.737 266.338C269.627 266.04 269.519 265.703 269.413 265.327C269.349 265.618 269.25 265.955 269.115 266.338L268.291 268.508ZM272.519 271.465H271.679L270.807 269.242H268.003L267.142 271.465H266.317L269.083 264.439H269.769L272.519 271.465ZM276.773 270.348C277.032 269.983 277.161 269.476 277.161 268.827C277.161 268.178 277.033 267.678 276.778 267.327C276.523 266.976 276.161 266.801 275.693 266.801C275.161 266.801 274.775 266.948 274.534 267.242C274.292 267.536 274.168 268.01 274.161 268.662V268.838C274.161 269.575 274.284 270.104 274.528 270.423C274.773 270.738 275.166 270.896 275.709 270.896C276.163 270.896 276.517 270.714 276.773 270.348ZM277.416 266.838C277.796 267.313 277.985 267.981 277.985 268.843C277.985 269.705 277.792 270.373 277.406 270.848C277.023 271.323 276.478 271.561 275.773 271.561C275.071 271.561 274.534 271.304 274.161 270.79H274.103C274.142 271.113 274.161 271.403 274.161 271.662V273.822H273.363V266.221H274.012L274.124 266.939H274.161C274.544 266.396 275.087 266.125 275.789 266.125C276.494 266.125 277.037 266.363 277.416 266.838ZM281.757 266.125C281.998 266.125 282.207 266.143 282.385 266.178L282.278 266.918C282.069 266.872 281.878 266.849 281.704 266.849C281.278 266.849 280.915 267.021 280.613 267.364C280.312 267.708 280.161 268.137 280.161 268.652V271.465H279.363V266.221H280.023L280.113 267.189H280.151C280.346 266.845 280.58 266.583 280.853 266.402C281.129 266.217 281.431 266.125 281.757 266.125ZM290.462 267.987C290.462 270.37 289.696 271.561 288.164 271.561C287.395 271.561 286.813 271.256 286.42 270.646C286.029 270.033 285.834 269.127 285.834 267.928C285.834 266.73 286.024 265.836 286.404 265.248C286.783 264.655 287.356 264.359 288.122 264.359C288.891 264.359 289.473 264.666 289.866 265.279C290.263 265.893 290.462 266.795 290.462 267.987ZM286.994 265.737C286.756 266.198 286.638 266.939 286.638 267.96C286.638 268.978 286.756 269.719 286.994 270.183C287.235 270.644 287.618 270.875 288.143 270.875C288.671 270.875 289.054 270.643 289.292 270.178C289.529 269.71 289.648 268.971 289.648 267.96C289.648 266.95 289.528 266.212 289.286 265.748C289.049 265.279 288.666 265.045 288.138 265.045C287.613 265.045 287.232 265.276 286.994 265.737ZM295.768 266.115C295.768 266.558 295.644 266.923 295.396 267.21C295.148 267.494 294.791 267.684 294.327 267.779V267.817C295.433 267.958 295.986 268.513 295.986 269.481C295.986 270.152 295.756 270.666 295.295 271.024C294.834 271.382 294.199 271.561 293.391 271.561C292.582 271.561 291.921 271.435 291.407 271.183V270.428C292.024 270.733 292.671 270.886 293.348 270.886C294.557 270.886 295.162 270.412 295.162 269.465C295.162 268.614 294.495 268.189 293.162 268.189H292.471V267.508H293.173C293.715 267.508 294.146 267.388 294.465 267.146C294.788 266.905 294.949 266.57 294.949 266.141C294.949 265.801 294.832 265.533 294.598 265.338C294.364 265.143 294.045 265.045 293.641 265.045C293.332 265.045 293.043 265.086 292.774 265.168C292.504 265.249 292.194 265.404 291.843 265.631L291.444 265.093C292.061 264.608 292.786 264.365 293.62 264.365C294.3 264.365 294.829 264.521 295.205 264.833C295.58 265.145 295.768 265.572 295.768 266.115Z" fill="#BDBDBD"/>
<path d="M356.85 268.508H359.111L358.297 266.338C358.187 266.04 358.079 265.703 357.973 265.327C357.909 265.618 357.809 265.955 357.675 266.338L356.85 268.508ZM361.079 271.465H360.238L359.366 269.242H356.563L355.701 271.465H354.877L357.643 264.439H358.329L361.079 271.465ZM365.332 270.348C365.591 269.983 365.721 269.476 365.721 268.827C365.721 268.178 365.593 267.678 365.338 267.327C365.082 266.976 364.721 266.801 364.253 266.801C363.721 266.801 363.334 266.948 363.093 267.242C362.852 267.536 362.728 268.01 362.721 268.662V268.838C362.721 269.575 362.843 270.104 363.088 270.423C363.332 270.738 363.726 270.896 364.269 270.896C364.722 270.896 365.077 270.714 365.332 270.348ZM365.976 266.838C366.355 267.313 366.545 267.981 366.545 268.843C366.545 269.705 366.352 270.373 365.965 270.848C365.582 271.323 365.038 271.561 364.332 271.561C363.63 271.561 363.093 271.304 362.721 270.79H362.662C362.701 271.113 362.721 271.403 362.721 271.662V273.822H361.923V266.221H362.572L362.684 266.939H362.721C363.104 266.396 363.646 266.125 364.348 266.125C365.054 266.125 365.596 266.363 365.976 266.838ZM370.317 266.125C370.558 266.125 370.767 266.143 370.944 266.178L370.838 266.918C370.629 266.872 370.437 266.849 370.263 266.849C369.838 266.849 369.474 267.021 369.173 267.364C368.872 267.708 368.721 268.137 368.721 268.652V271.465H367.923V266.221H368.583L368.673 267.189H368.71C368.905 266.845 369.139 266.583 369.412 266.402C369.689 266.217 369.99 266.125 370.317 266.125ZM379.021 267.987C379.021 270.37 378.256 271.561 376.724 271.561C375.954 271.561 375.373 271.256 374.979 270.646C374.589 270.033 374.394 269.127 374.394 267.928C374.394 266.73 374.584 265.836 374.963 265.248C375.343 264.655 375.915 264.359 376.681 264.359C377.451 264.359 378.032 264.666 378.426 265.279C378.823 265.893 379.021 266.795 379.021 267.987ZM375.554 265.737C375.316 266.198 375.197 266.939 375.197 267.96C375.197 268.978 375.316 269.719 375.554 270.183C375.795 270.644 376.178 270.875 376.702 270.875C377.231 270.875 377.614 270.643 377.851 270.178C378.089 269.71 378.208 268.971 378.208 267.96C378.208 266.95 378.087 266.212 377.846 265.748C377.608 265.279 377.225 265.045 376.697 265.045C376.172 265.045 375.791 265.276 375.554 265.737ZM384.924 269.136V269.859H383.886V271.465H383.126V269.859H379.722V269.162L383.041 264.428H383.886V269.136H384.924ZM383.126 269.136V266.806C383.126 266.352 383.142 265.838 383.174 265.264H383.131C382.972 265.576 382.828 265.829 382.7 266.024L380.514 269.136H383.126Z" fill="#BDBDBD"/>
<path d="M445.41 268.508H447.67L446.857 266.338C446.747 266.04 446.638 265.703 446.532 265.327C446.468 265.618 446.369 265.955 446.234 266.338L445.41 268.508ZM449.638 271.465H448.798L447.926 269.242H445.123L444.261 271.465H443.437L446.202 264.439H446.888L449.638 271.465ZM453.892 270.348C454.151 269.983 454.28 269.476 454.28 268.827C454.28 268.178 454.153 267.678 453.897 267.327C453.642 266.976 453.28 266.801 452.812 266.801C452.28 266.801 451.894 266.948 451.653 267.242C451.412 267.536 451.287 268.01 451.28 268.662V268.838C451.28 269.575 451.403 270.104 451.647 270.423C451.892 270.738 452.286 270.896 452.828 270.896C453.282 270.896 453.637 270.714 453.892 270.348ZM454.535 266.838C454.915 267.313 455.105 267.981 455.105 268.843C455.105 269.705 454.911 270.373 454.525 270.848C454.142 271.323 453.598 271.561 452.892 271.561C452.19 271.561 451.653 271.304 451.28 270.79H451.222C451.261 271.113 451.28 271.403 451.28 271.662V273.822H450.482V266.221H451.131L451.243 266.939H451.28C451.663 266.396 452.206 266.125 452.908 266.125C453.614 266.125 454.156 266.363 454.535 266.838ZM458.876 266.125C459.117 266.125 459.326 266.143 459.504 266.178L459.397 266.918C459.188 266.872 458.997 266.849 458.823 266.849C458.397 266.849 458.034 267.021 457.733 267.364C457.431 267.708 457.28 268.137 457.28 268.652V271.465H456.483V266.221H457.142L457.233 267.189H457.27C457.465 266.845 457.699 266.583 457.972 266.402C458.248 266.217 458.55 266.125 458.876 266.125ZM467.581 267.987C467.581 270.37 466.815 271.561 465.283 271.561C464.514 271.561 463.932 271.256 463.539 270.646C463.149 270.033 462.954 269.127 462.954 267.928C462.954 266.73 463.143 265.836 463.523 265.248C463.902 264.655 464.475 264.359 465.241 264.359C466.01 264.359 466.592 264.666 466.985 265.279C467.382 265.893 467.581 266.795 467.581 267.987ZM464.113 265.737C463.876 266.198 463.757 266.939 463.757 267.96C463.757 268.978 463.876 269.719 464.113 270.183C464.354 270.644 464.737 270.875 465.262 270.875C465.79 270.875 466.173 270.643 466.411 270.178C466.648 269.71 466.767 268.971 466.767 267.96C466.767 266.95 466.647 266.212 466.406 265.748C466.168 265.279 465.785 265.045 465.257 265.045C464.732 265.045 464.351 265.276 464.113 265.737ZM470.739 267.189C471.48 267.189 472.061 267.372 472.483 267.737C472.905 268.102 473.116 268.604 473.116 269.242C473.116 269.969 472.884 270.538 472.419 270.949C471.958 271.357 471.329 271.561 470.531 271.561C469.737 271.561 469.131 271.435 468.712 271.183V270.418C468.936 270.563 469.216 270.676 469.553 270.758C469.889 270.836 470.214 270.875 470.526 270.875C471.09 270.875 471.526 270.742 471.834 270.476C472.146 270.21 472.302 269.829 472.302 269.332C472.302 268.354 471.703 267.864 470.505 267.864C470.21 267.864 469.806 267.911 469.292 268.003L468.877 267.742L469.143 264.466H472.622V265.2H469.819L469.643 267.301C470.008 267.226 470.373 267.189 470.739 267.189Z" fill="#BDBDBD"/>
<path d="M533.969 268.508H536.23L535.416 266.338C535.306 266.04 535.198 265.703 535.092 265.327C535.028 265.618 534.929 265.955 534.794 266.338L533.969 268.508ZM538.198 271.465H537.358L536.485 269.242H533.682L532.821 271.465H531.996L534.762 264.439H535.448L538.198 271.465ZM542.451 270.348C542.71 269.983 542.84 269.476 542.84 268.827C542.84 268.178 542.712 267.678 542.457 267.327C542.201 266.976 541.84 266.801 541.372 266.801C540.84 266.801 540.453 266.948 540.212 267.242C539.971 267.536 539.847 268.01 539.84 268.662V268.838C539.84 269.575 539.962 270.104 540.207 270.423C540.452 270.738 540.845 270.896 541.388 270.896C541.842 270.896 542.196 270.714 542.451 270.348ZM543.095 266.838C543.474 267.313 543.664 267.981 543.664 268.843C543.664 269.705 543.471 270.373 543.084 270.848C542.701 271.323 542.157 271.561 541.452 271.561C540.749 271.561 540.212 271.304 539.84 270.79H539.781C539.82 271.113 539.84 271.403 539.84 271.662V273.822H539.042V266.221H539.691L539.803 266.939H539.84C540.223 266.396 540.765 266.125 541.467 266.125C542.173 266.125 542.716 266.363 543.095 266.838ZM547.436 266.125C547.677 266.125 547.886 266.143 548.063 266.178L547.957 266.918C547.748 266.872 547.556 266.849 547.382 266.849C546.957 266.849 546.594 267.021 546.292 267.364C545.991 267.708 545.84 268.137 545.84 268.652V271.465H545.042V266.221H545.702L545.792 267.189H545.829C546.024 266.845 546.258 266.583 546.531 266.402C546.808 266.217 547.109 266.125 547.436 266.125ZM556.141 267.987C556.141 270.37 555.375 271.561 553.843 271.561C553.073 271.561 552.492 271.256 552.098 270.646C551.708 270.033 551.513 269.127 551.513 267.928C551.513 266.73 551.703 265.836 552.082 265.248C552.462 264.655 553.034 264.359 553.8 264.359C554.57 264.359 555.151 264.666 555.545 265.279C555.942 265.893 556.141 266.795 556.141 267.987ZM552.673 265.737C552.435 266.198 552.316 266.939 552.316 267.96C552.316 268.978 552.435 269.719 552.673 270.183C552.914 270.644 553.297 270.875 553.822 270.875C554.35 270.875 554.733 270.643 554.97 270.178C555.208 269.71 555.327 268.971 555.327 267.96C555.327 266.95 555.206 266.212 554.965 265.748C554.728 265.279 554.345 265.045 553.816 265.045C553.291 265.045 552.91 265.276 552.673 265.737ZM557.192 268.476C557.192 267.107 557.458 266.081 557.99 265.396C558.525 264.709 559.318 264.365 560.367 264.365C560.722 264.365 561.006 264.395 561.218 264.455V265.141C560.981 265.063 560.701 265.024 560.378 265.024C559.619 265.024 559.043 265.26 558.649 265.732C558.259 266.203 558.045 266.935 558.006 267.928H558.064C558.415 267.379 558.97 267.104 559.729 267.104C560.36 267.104 560.857 267.294 561.218 267.673C561.58 268.052 561.761 268.588 561.761 269.279C561.761 269.967 561.562 270.52 561.165 270.939C560.768 271.354 560.218 271.561 559.516 271.561C558.818 271.561 558.256 271.29 557.83 270.747C557.405 270.198 557.192 269.441 557.192 268.476ZM560.601 270.46C560.85 270.173 560.974 269.776 560.974 269.269C560.974 268.762 560.855 268.379 560.617 268.12C560.383 267.861 560.038 267.731 559.58 267.731C559.162 267.717 558.793 267.847 558.474 268.12C558.155 268.393 557.999 268.701 558.006 269.045C557.999 269.545 558.144 269.981 558.442 270.354C558.74 270.722 559.107 270.9 559.543 270.886C560 270.886 560.353 270.744 560.601 270.46Z" fill="#BDBDBD"/>
<path d="M623.221 268.508H625.482L624.668 266.338C624.558 266.04 624.45 265.703 624.344 265.327C624.28 265.618 624.181 265.955 624.046 266.338L623.221 268.508ZM627.45 271.465H626.609L625.737 269.242H622.934L622.072 271.465H621.248L624.014 264.439H624.7L627.45 271.465ZM631.703 270.348C631.962 269.983 632.092 269.476 632.092 268.827C632.092 268.178 631.964 267.678 631.709 267.327C631.453 266.976 631.092 266.801 630.624 266.801C630.092 266.801 629.705 266.948 629.464 267.242C629.223 267.536 629.099 268.01 629.092 268.662V268.838C629.092 269.575 629.214 270.104 629.459 270.423C629.704 270.738 630.097 270.896 630.64 270.896C631.094 270.896 631.448 270.714 631.703 270.348ZM632.347 266.838C632.726 267.313 632.916 267.981 632.916 268.843C632.916 269.705 632.723 270.373 632.336 270.848C631.953 271.323 631.409 271.561 630.703 271.561C630.001 271.561 629.464 271.304 629.092 270.79H629.033C629.072 271.113 629.092 271.403 629.092 271.662V273.822H628.294V266.221H628.943L629.055 266.939H629.092C629.475 266.396 630.017 266.125 630.719 266.125C631.425 266.125 631.968 266.363 632.347 266.838ZM636.688 266.125C636.929 266.125 637.138 266.143 637.315 266.178L637.209 266.918C637 266.872 636.808 266.849 636.634 266.849C636.209 266.849 635.845 267.021 635.544 267.364C635.243 267.708 635.092 268.137 635.092 268.652V271.465H634.294V266.221H634.954L635.044 267.189H635.081C635.276 266.845 635.51 266.583 635.783 266.402C636.06 266.217 636.361 266.125 636.688 266.125ZM645.393 267.987C645.393 270.37 644.627 271.561 643.095 271.561C642.325 271.561 641.744 271.256 641.35 270.646C640.96 270.033 640.765 269.127 640.765 267.928C640.765 266.73 640.955 265.836 641.334 265.248C641.714 264.655 642.286 264.359 643.052 264.359C643.822 264.359 644.403 264.666 644.797 265.279C645.194 265.893 645.393 266.795 645.393 267.987ZM641.925 265.737C641.687 266.198 641.568 266.939 641.568 267.96C641.568 268.978 641.687 269.719 641.925 270.183C642.166 270.644 642.549 270.875 643.074 270.875C643.602 270.875 643.985 270.643 644.222 270.178C644.46 269.71 644.579 268.971 644.579 267.96C644.579 266.95 644.458 266.212 644.217 265.748C643.979 265.279 643.597 265.045 643.068 265.045C642.543 265.045 642.162 265.276 641.925 265.737ZM646.338 265.2V264.466H650.992V265.104L648.13 271.465H647.247L650.151 265.2H646.338Z" fill="#BDBDBD"/>
<path d="M712.472 268.508H714.733L713.919 266.338C713.809 266.04 713.701 265.703 713.595 265.327C713.531 265.618 713.431 265.955 713.297 266.338L712.472 268.508ZM716.701 271.465H715.86L714.988 269.242H712.185L711.323 271.465H710.499L713.265 264.439H713.951L716.701 271.465ZM720.954 270.348C721.213 269.983 721.343 269.476 721.343 268.827C721.343 268.178 721.215 267.678 720.96 267.327C720.704 266.976 720.343 266.801 719.875 266.801C719.343 266.801 718.956 266.948 718.715 267.242C718.474 267.536 718.35 268.01 718.343 268.662V268.838C718.343 269.575 718.465 270.104 718.71 270.423C718.954 270.738 719.348 270.896 719.891 270.896C720.344 270.896 720.699 270.714 720.954 270.348ZM721.598 266.838C721.977 267.313 722.167 267.981 722.167 268.843C722.167 269.705 721.974 270.373 721.587 270.848C721.204 271.323 720.66 271.561 719.954 271.561C719.252 271.561 718.715 271.304 718.343 270.79H718.284C718.323 271.113 718.343 271.403 718.343 271.662V273.822H717.545V266.221H718.194L718.306 266.939H718.343C718.726 266.396 719.268 266.125 719.97 266.125C720.676 266.125 721.219 266.363 721.598 266.838ZM725.939 266.125C726.18 266.125 726.389 266.143 726.566 266.178L726.46 266.918C726.251 266.872 726.059 266.849 725.885 266.849C725.46 266.849 725.096 267.021 724.795 267.364C724.494 267.708 724.343 268.137 724.343 268.652V271.465H723.545V266.221H724.205L724.295 267.189H724.332C724.527 266.845 724.761 266.583 725.034 266.402C725.311 266.217 725.612 266.125 725.939 266.125ZM734.644 267.987C734.644 270.37 733.878 271.561 732.346 271.561C731.576 271.561 730.995 271.256 730.601 270.646C730.211 270.033 730.016 269.127 730.016 267.928C730.016 266.73 730.206 265.836 730.585 265.248C730.965 264.655 731.537 264.359 732.303 264.359C733.073 264.359 733.654 264.666 734.048 265.279C734.445 265.893 734.644 266.795 734.644 267.987ZM731.176 265.737C730.938 266.198 730.819 266.939 730.819 267.96C730.819 268.978 730.938 269.719 731.176 270.183C731.417 270.644 731.8 270.875 732.324 270.875C732.853 270.875 733.236 270.643 733.473 270.178C733.711 269.71 733.83 268.971 733.83 267.96C733.83 266.95 733.709 266.212 733.468 265.748C733.23 265.279 732.848 265.045 732.319 265.045C731.794 265.045 731.413 265.276 731.176 265.737ZM736.424 264.817C736.799 264.515 737.305 264.365 737.939 264.365C738.574 264.365 739.078 264.514 739.45 264.811C739.822 265.109 740.009 265.519 740.009 266.04C740.009 266.746 739.56 267.318 738.663 267.758C739.223 268.024 739.624 268.309 739.865 268.614C740.11 268.916 740.232 269.262 740.232 269.652C740.232 270.237 740.03 270.701 739.626 271.045C739.225 271.389 738.659 271.561 737.929 271.561C737.202 271.561 736.638 271.398 736.237 271.072C735.837 270.746 735.636 270.281 735.636 269.678C735.636 268.877 736.124 268.253 737.099 267.806C736.67 267.565 736.356 267.301 736.158 267.013C735.963 266.723 735.865 266.396 735.865 266.035C735.865 265.528 736.051 265.122 736.424 264.817ZM738.934 266.843C739.129 266.623 739.227 266.359 739.227 266.051C739.227 265.739 739.11 265.489 738.876 265.301C738.645 265.109 738.33 265.014 737.929 265.014C737.528 265.014 737.213 265.109 736.982 265.301C736.755 265.489 736.642 265.737 736.642 266.045C736.642 266.354 736.736 266.613 736.924 266.822C737.115 267.031 737.464 267.242 737.971 267.455C738.422 267.267 738.743 267.063 738.934 266.843ZM736.737 268.811C736.525 269.059 736.418 269.366 736.418 269.731C736.418 270.093 736.551 270.382 736.817 270.598C737.083 270.811 737.455 270.917 737.934 270.917C738.413 270.917 738.785 270.808 739.051 270.588C739.317 270.364 739.45 270.056 739.45 269.662C739.45 269.354 739.324 269.079 739.072 268.838C738.821 268.597 738.388 268.363 737.775 268.136C737.299 268.338 736.954 268.563 736.737 268.811Z" fill="#BDBDBD"/>
<g filter="url(#filter1_d)">
<rect x="358.021" y="55" width="87.3618" height="34" rx="2.55877" fill="white"/>
<rect x="358.447" y="55.4265" width="86.5089" height="33.1471" rx="2.13231" stroke="#8CA0B3" stroke-opacity="0.2" stroke-width="0.852923"/>
</g>
<path d="M368.286 73.3392C368.286 73.8761 368.092 74.3008 367.704 74.6132C367.315 74.9257 366.788 75.0819 366.12 75.0819C365.453 75.0819 364.875 74.9621 364.387 74.7224V73.544C364.79 73.7199 365.131 73.8458 365.411 73.9216C365.69 73.9975 365.958 74.0354 366.216 74.0354C366.474 74.0354 366.675 73.9823 366.821 73.8761C366.97 73.7669 367.044 73.6077 367.044 73.3984C367.044 73.277 367.011 73.1724 366.944 73.0844C366.877 72.9934 366.785 72.9085 366.666 72.8296C366.551 72.7477 366.298 72.6158 365.906 72.4338C365.518 72.2487 365.235 72.0774 365.056 71.9196C364.655 71.5738 364.455 71.14 364.455 70.6183C364.455 70.0966 364.634 69.684 364.992 69.3807C365.35 69.0774 365.846 68.9257 366.48 68.9257C367.017 68.9257 367.61 69.0667 368.259 69.3488L367.849 70.3362C367.531 70.2058 367.265 70.1148 367.053 70.0632C366.841 70.0116 366.625 69.9858 366.407 69.9858C366.192 69.9858 366.019 70.0404 365.888 70.1496C365.761 70.2588 365.697 70.406 365.697 70.591C365.697 70.8033 365.805 70.9823 366.02 71.1279C366.126 71.2007 366.395 71.3387 366.826 71.542C367.381 71.8089 367.763 72.0774 367.972 72.3473C368.181 72.6173 368.286 72.9479 368.286 73.3392ZM371.927 71.6785C371.778 71.454 371.538 71.3418 371.208 71.3418C370.877 71.3418 370.638 71.454 370.489 71.6785C370.34 71.8999 370.266 72.2427 370.266 72.7068C370.266 73.1678 370.342 73.5121 370.493 73.7396C370.645 73.9671 370.885 74.0809 371.212 74.0809C371.54 74.0809 371.778 73.9671 371.927 73.7396C372.078 73.5121 372.154 73.1678 372.154 72.7068C372.154 72.2427 372.078 71.8999 371.927 71.6785ZM371.221 70.3362C371.886 70.3271 372.423 70.541 372.832 70.9778C373.242 71.4115 373.44 71.9863 373.428 72.7022C373.428 73.4484 373.231 74.0324 372.837 74.454C372.445 74.8726 371.899 75.0819 371.199 75.0819C370.534 75.088 369.997 74.8726 369.588 74.4358C369.181 73.999 368.983 73.4211 368.992 72.7022C368.992 71.956 369.186 71.3751 369.574 70.9596C369.966 70.544 370.515 70.3362 371.221 70.3362ZM378.563 72.7022V75H377.312V72.3246C377.312 71.9909 377.256 71.7437 377.144 71.5829C377.032 71.4191 376.859 71.3372 376.625 71.3372C376.307 71.3372 376.075 71.454 375.929 71.6876C375.783 71.9181 375.711 72.3049 375.711 72.8478V75H374.464V70.4226H375.419L375.588 71.0096H375.656C375.777 70.7973 375.953 70.632 376.184 70.5137C376.417 70.3953 376.684 70.3362 376.985 70.3362C377.673 70.3362 378.137 70.5607 378.377 71.0096H378.491C378.609 70.7942 378.788 70.6289 379.028 70.5137C379.267 70.3953 379.539 70.3362 379.842 70.3362C380.37 70.3362 380.764 70.4712 381.025 70.7412C381.286 71.0111 381.416 71.4358 381.416 72.0152V75H380.165V72.3246C380.165 71.9909 380.109 71.7437 379.997 71.5829C379.884 71.4191 379.712 71.3372 379.478 71.3372C379.169 71.3372 378.938 71.4479 378.786 71.6694C378.638 71.8878 378.563 72.2321 378.563 72.7022ZM385.466 72.1926C385.463 71.8862 385.384 71.6481 385.229 71.4783C385.074 71.3084 384.863 71.2235 384.597 71.2235C384.333 71.2235 384.125 71.3084 383.973 71.4783C383.821 71.6451 383.735 71.8832 383.714 72.1926H385.466ZM386.38 74.7588C385.949 74.9742 385.412 75.0819 384.769 75.0819C384.032 75.0819 383.456 74.8802 383.04 74.4767C382.628 74.0703 382.422 73.4879 382.422 72.7295C382.422 71.9712 382.613 71.3827 382.995 70.9641C383.383 70.5455 383.906 70.3362 384.565 70.3362C385.226 70.3362 385.737 70.5212 386.098 70.8913C386.459 71.2614 386.639 71.7695 386.639 72.4156V73.0207H383.687C383.699 73.3787 383.803 73.6577 384 73.8579C384.201 74.0551 384.477 74.1537 384.829 74.1537C385.353 74.1537 385.871 74.0339 386.38 73.7942V74.7588ZM391.443 75H390.173V69.0121H391.443V75ZM397.078 72.0152V75H395.826V72.3246C395.826 71.9909 395.767 71.7437 395.649 71.5829C395.53 71.4191 395.344 71.3372 395.089 71.3372C394.743 71.3372 394.492 71.454 394.334 71.6876C394.176 71.9181 394.097 72.3049 394.097 72.8478V75H392.851V70.4226H393.806L393.974 71.0096H394.043C394.179 70.7912 394.369 70.6244 394.611 70.5091C394.857 70.3938 395.136 70.3362 395.449 70.3362C395.982 70.3362 396.387 70.4803 396.663 70.7685C396.939 71.0536 397.078 71.4692 397.078 72.0152ZM400.891 70.4226V71.36H399.813V75H398.561V71.36H397.874V70.7594L398.561 70.4226V70.0859C398.561 69.5642 398.69 69.1835 398.948 68.9439C399.206 68.7042 399.617 68.5844 400.181 68.5844C400.612 68.5844 400.994 68.6481 401.328 68.7755L401.009 69.6946C400.755 69.6158 400.532 69.5763 400.341 69.5763C400.152 69.5763 400.017 69.6264 399.936 69.7265C399.854 69.8266 399.813 69.9631 399.813 70.136V70.4226H400.891ZM404.27 71.6785C404.122 71.454 403.882 71.3418 403.552 71.3418C403.221 71.3418 402.981 71.454 402.833 71.6785C402.684 71.8999 402.61 72.2427 402.61 72.7068C402.61 73.1678 402.686 73.5121 402.837 73.7396C402.989 73.9671 403.228 74.0809 403.556 74.0809C403.884 74.0809 404.122 73.9671 404.27 73.7396C404.422 73.5121 404.498 73.1678 404.498 72.7068C404.498 72.2427 404.422 71.8999 404.27 71.6785ZM403.565 70.3362C404.229 70.3271 404.766 70.541 405.176 70.9778C405.585 71.4115 405.784 71.9863 405.772 72.7022C405.772 73.4484 405.575 74.0324 405.18 74.454C404.789 74.8726 404.243 75.0819 403.542 75.0819C402.878 75.088 402.341 74.8726 401.932 74.4358C401.525 73.999 401.327 73.4211 401.336 72.7022C401.336 71.956 401.53 71.3751 401.918 70.9596C402.309 70.544 402.858 70.3362 403.565 70.3362ZM409.365 70.3362C409.522 70.3362 409.662 70.3483 409.783 70.3726L409.692 71.542C409.589 71.5147 409.466 71.501 409.324 71.501C408.923 71.501 408.611 71.6041 408.386 71.8104C408.165 72.0137 408.054 72.3003 408.054 72.6704V75H406.808V70.4226H407.754L407.936 71.1916H408C408.145 70.9307 408.339 70.723 408.582 70.5683C408.825 70.4135 409.086 70.3362 409.365 70.3362ZM414.713 72.7022V75H413.462V72.3246C413.462 71.9909 413.405 71.7437 413.293 71.5829C413.181 71.4191 413.008 71.3372 412.774 71.3372C412.456 71.3372 412.224 71.454 412.078 71.6876C411.933 71.9181 411.86 72.3049 411.86 72.8478V75H410.613V70.4226H411.569L411.737 71.0096H411.805C411.927 70.7973 412.103 70.632 412.333 70.5137C412.567 70.3953 412.834 70.3362 413.134 70.3362C413.823 70.3362 414.287 70.5607 414.526 71.0096H414.64C414.758 70.7942 414.937 70.6289 415.177 70.5137C415.417 70.3953 415.688 70.3362 415.991 70.3362C416.519 70.3362 416.914 70.4712 417.174 70.7412C417.435 71.0111 417.566 71.4358 417.566 72.0152V75H416.314V72.3246C416.314 71.9909 416.258 71.7437 416.146 71.5829C416.034 71.4191 415.861 71.3372 415.627 71.3372C415.318 71.3372 415.087 71.4479 414.936 71.6694C414.787 71.8878 414.713 72.2321 414.713 72.7022ZM422.63 75H421.756L421.515 74.3766H421.483C421.271 74.6436 421.054 74.8286 420.832 74.9317C420.611 75.0319 420.321 75.0819 419.963 75.0819C419.52 75.0819 419.173 74.956 418.921 74.7042C418.67 74.4494 418.544 74.087 418.544 73.6168C418.544 73.1466 418.711 72.7947 419.044 72.5612C419.381 72.3276 419.897 72.1987 420.591 72.1744L421.387 72.1517V71.9515C421.387 71.4874 421.149 71.2553 420.673 71.2553C420.312 71.2553 419.883 71.3645 419.385 71.5829L418.971 70.7412C419.496 70.4651 420.074 70.3271 420.705 70.3271C421.339 70.3271 421.818 70.4636 422.143 70.7366C422.467 71.0066 422.63 71.4115 422.63 71.9515V75ZM421.387 73.2573V72.8797L420.905 72.8933C420.538 72.9055 420.267 72.9722 420.091 73.0935C419.915 73.2118 419.827 73.3938 419.827 73.6395C419.827 73.9914 420.029 74.1673 420.432 74.1673C420.723 74.1673 420.955 74.0854 421.128 73.9216C421.301 73.7548 421.387 73.5334 421.387 73.2573ZM425.294 73.5667C425.294 73.7396 425.343 73.8701 425.44 73.958C425.537 74.043 425.684 74.0854 425.881 74.0854C426.078 74.0854 426.327 74.0384 426.627 73.9444V74.8726C426.318 75.0121 425.925 75.0819 425.449 75.0819C424.976 75.0819 424.624 74.9575 424.393 74.7088C424.163 74.4601 424.048 74.0794 424.048 73.5667V71.36H423.447V70.8322L424.134 70.4135L424.498 69.4489H425.294V70.4226H426.577V71.36H425.294V73.5667ZM428.796 70.4226V75H427.55V70.4226H428.796ZM428.178 69.8539C427.723 69.8539 427.495 69.6507 427.495 69.2442C427.495 68.8347 427.721 68.6299 428.173 68.6299C428.628 68.6299 428.856 68.8332 428.856 69.2396C428.856 69.4368 428.798 69.5885 428.683 69.6946C428.567 69.8008 428.399 69.8539 428.178 69.8539ZM432.765 71.6785C432.616 71.454 432.376 71.3418 432.046 71.3418C431.715 71.3418 431.475 71.454 431.327 71.6785C431.178 71.8999 431.104 72.2427 431.104 72.7068C431.104 73.1678 431.18 73.5121 431.331 73.7396C431.483 73.9671 431.723 74.0809 432.05 74.0809C432.378 74.0809 432.616 73.9671 432.765 73.7396C432.916 73.5121 432.992 73.1678 432.992 72.7068C432.992 72.2427 432.916 71.8999 432.765 71.6785ZM432.059 70.3362C432.724 70.3271 433.261 70.541 433.67 70.9778C434.08 71.4115 434.278 71.9863 434.266 72.7022C434.266 73.4484 434.069 74.0324 433.675 74.454C433.283 74.8726 432.737 75.0819 432.037 75.0819C431.372 75.088 430.835 74.8726 430.426 74.4358C430.019 73.999 429.821 73.4211 429.83 72.7022C429.83 71.956 430.024 71.3751 430.412 70.9596C430.804 70.544 431.353 70.3362 432.059 70.3362ZM439.529 72.0152V75H438.277V72.3246C438.277 71.9909 438.218 71.7437 438.1 71.5829C437.982 71.4191 437.795 71.3372 437.54 71.3372C437.195 71.3372 436.943 71.454 436.785 71.6876C436.627 71.9181 436.548 72.3049 436.548 72.8478V75H435.302V70.4226H436.257L436.426 71.0096H436.494C436.63 70.7912 436.82 70.6244 437.063 70.5091C437.308 70.3938 437.587 70.3362 437.9 70.3362C438.434 70.3362 438.839 70.4803 439.115 70.7685C439.391 71.0536 439.529 71.4692 439.529 72.0152Z" fill="#2D74DA"/>
<circle cx="357.762" cy="104.5" r="2.56459" fill="white" stroke="#1B75BB" stroke-width="1.87083"/>
<defs>
<filter id="filter0_d" x="0.425964" y="0.940771" width="807.148" height="363.148" filterUnits="userSpaceOnUse" color-interpolation-filters="sRGB">
<feFlood flood-opacity="0" result="BackgroundImageFix"/>
<feColorMatrix in="SourceAlpha" type="matrix" values="0 0 0 0 0 0 0 0 0 0 0 0 0 0 0 0 0 0 127 0"/>
<feOffset dy="7.51481"/>
<feGaussianBlur stdDeviation="18.787"/>
<feColorMatrix type="matrix" values="0 0 0 0 0 0 0 0 0 0 0 0 0 0 0 0 0 0 0.07 0"/>
<feBlend mode="normal" in2="BackgroundImageFix" result="effect1_dropShadow"/>
<feBlend mode="normal" in="SourceGraphic" in2="effect1_dropShadow" result="shape"/>
</filter>
<filter id="filter1_d" x="332.496" y="36.2818" width="138.411" height="85.0495" filterUnits="userSpaceOnUse" color-interpolation-filters="sRGB">
<feFlood flood-opacity="0" result="BackgroundImageFix"/>
<feColorMatrix in="SourceAlpha" type="matrix" values="0 0 0 0 0 0 0 0 0 0 0 0 0 0 0 0 0 0 127 0"/>
<feOffset dy="6.8066"/>
<feGaussianBlur stdDeviation="12.7624"/>
<feColorMatrix type="matrix" values="0 0 0 0 0.592 0 0 0 0 0.592 0 0 0 0 0.592 0 0 0 0.14 0"/>
<feBlend mode="normal" in2="BackgroundImageFix" result="effect1_dropShadow"/>
<feBlend mode="normal" in="SourceGraphic" in2="effect1_dropShadow" result="shape"/>
</filter>
</defs>
</svg>
