<svg xmlns="http://www.w3.org/2000/svg" xmlns:xlink="http://www.w3.org/1999/xlink" viewBox="0 0 32 32"><defs><style>.a{fill:#e7ebef;}.b{clip-path:url(#a);}.c{fill:#ecc19c;}.d{fill:#c7d4e2;}.e{fill:#030303;}.f{fill:#023258;}.g{fill:#022745;}</style><clipPath id="a"><circle cx="16" cy="16" r="16"/></clipPath></defs><circle class="a" cx="16" cy="16" r="16" transform="translate(0 0)"/><g class="b" transform="translate(0 0)"><path class="c" d="M66.454,18.048v5.318c0,.077,0,.154,0,.231,0,.159-.012.318-.026.476,0,.054-.009.108-.016.163-.023.226-.054.448-.094.668-.014.073-.028.145-.044.217a.306.306,0,0,1-.009.044c-.014.073-.032.145-.049.217-.007.038-.018.077-.026.115s-.018.067-.028.1c-.037.143-.079.283-.123.423-.021.067-.042.131-.065.2,0,.007-.005.014-.007.021l-.063.178c-.007.018-.014.035-.021.054-.021.056-.042.112-.065.168s-.054.135-.082.2-.051.119-.077.178c0,.011-.009.019-.012.03-.03.063-.058.126-.087.187s-.061.129-.095.194c-.063.128-.131.255-.2.379l-.095.168a10.279,10.279,0,0,1-.893,1.3c-.044.058-.089.114-.136.168-.065.079-.131.156-.2.231s-.119.133-.18.2c-.168.18-.339.352-.514.512-.035.035-.072.066-.109.1-.059.054-.119.107-.18.157s-.1.082-.145.122c-.126.1-.252.2-.379.3-.053.04-.107.079-.161.115-.087.063-.177.122-.266.18-.049.033-.1.065-.151.094-.178.11-.358.212-.537.3-.044.023-.087.044-.131.065l-.136.063q-.087.039-.173.073a.545.545,0,0,1-.068.026c-.068.028-.138.054-.206.077-.086.031-.173.058-.259.082-.06.018-.121.033-.18.047a.024.024,0,0,1-.012,0c-.06.014-.119.028-.178.038a.416.416,0,0,1-.047.009c-.049.009-.1.018-.147.023-.07.011-.14.019-.21.023a.506.506,0,0,1-.072.005c-.056,0-.112.005-.166.005h-.005q-.081,0-.163-.005a.376.376,0,0,1-.063-.005c-.049,0-.1-.007-.152-.014a.217.217,0,0,1-.033,0c-.065-.009-.129-.019-.2-.031s-.112-.021-.17-.035a5.014,5.014,0,0,1-.918-.31,6.694,6.694,0,0,1-.8-.423c-.135-.082-.269-.17-.4-.262-.066-.047-.133-.094-.2-.143q-.312-.228-.617-.5c-.056-.051-.112-.1-.168-.154s-.112-.1-.166-.154q-.2-.2-.4-.409-.076-.081-.152-.168c-.14-.157-.276-.32-.406-.49-.051-.061-.1-.124-.145-.187q-.265-.351-.5-.733c-.042-.068-.084-.138-.124-.206s-.1-.166-.143-.25a9.535,9.535,0,0,1-.476-.979c-.021-.049-.042-.1-.06-.147s-.053-.128-.075-.191q-.052-.139-.1-.278c-.031-.093-.061-.187-.091-.281s-.054-.182-.079-.275-.054-.2-.077-.3c0-.011-.005-.021-.007-.031q-.05-.21-.089-.425c-.035-.189-.063-.381-.084-.575-.009-.061-.014-.122-.019-.184s-.012-.128-.016-.192c-.009-.117-.014-.236-.018-.355,0-.077,0-.154,0-.231V18.048a7.12,7.12,0,0,1,7.114-7.119h.007a7.2,7.2,0,0,1,1.577.175,7.126,7.126,0,0,1,5.542,6.944Z" transform="translate(-43.334 -9.07)"/></g><g class="b" transform="translate(0 0)"><path class="c" d="M58.089,135.8v0H39.538v0a9.229,9.229,0,0,1,.495-3q.086-.254.189-.5v0c.068-.166.14-.329.217-.49a9.181,9.181,0,0,1,1.13-1.8c.112-.138.226-.273.343-.4.058-.066.119-.131.18-.2s.122-.126.185-.189a9.234,9.234,0,0,1,1-.864c.177-.131.355-.254.54-.372s.374-.229.567-.334a.011.011,0,0,1,.007,0c.075-.04.149-.084.222-.129.145-.087.288-.182.425-.283.07-.049.136-.1.2-.154.157-.126.309-.261.455-.4.047-.047.095-.094.142-.143.1-.1.19-.208.28-.317.044-.052.088-.107.128-.161s.082-.11.122-.166a5.819,5.819,0,0,0,1.088-3.4l1.352.007,1.39.007a5.853,5.853,0,0,0,2.2,4.578c.065.053.129.1.194.15s.128.093.194.136l.04.028c.063.042.126.084.192.122s.145.087.219.128a.086.086,0,0,1,.031.016c.154.086.306.175.455.268.072.044.143.089.213.14q.218.142.425.3a0,0,0,0,0,0,0h0a9.363,9.363,0,0,1,1,.864A9.229,9.229,0,0,1,58.089,135.8Z" transform="translate(-32.813 -101.656)"/></g><g class="b" transform="translate(0 0)"><path class="d" d="M58.09,158.182H39.539a9.233,9.233,0,0,1,.495-3q.086-.255.189-.5s0,0,0,0c.067-.166.14-.329.217-.489a9.181,9.181,0,0,1,1.13-1.8c.112-.138.226-.273.343-.4.058-.066.119-.131.18-.2s.122-.126.185-.189a9.212,9.212,0,0,1,1-.864c.177-.131.355-.254.54-.372s.374-.231.567-.336a.006.006,0,0,1,.007,0v0c.075-.042.149-.084.222-.128a5.4,5.4,0,0,0,.624-.441l0,0a4.984,4.984,0,0,0,3.566,1.506h.014a5,5,0,0,0,3.574-1.5l0,0a4.684,4.684,0,0,0,.386.288c.014.01.026.019.04.028.063.042.128.082.192.122s.145.086.219.126a.17.17,0,0,1,.031.016c.154.086.306.175.455.269.072.044.143.089.213.14.145.093.287.194.425.3h0a9.288,9.288,0,0,1,3.726,7.43Z" transform="translate(-32.814 -124.04)"/></g><g class="b" transform="translate(0 0)"><path class="e" d="M66.453,84.049c0,.077,0,.154,0,.231,0,.159-.012.318-.026.476,0,.054-.009.108-.016.163-.023.226-.054.448-.094.668-.014.073-.028.145-.044.217a.306.306,0,0,1-.009.044c-.014.073-.032.145-.049.217-.009.042-.019.082-.032.122a.785.785,0,0,1-.023.093c-.037.143-.079.283-.123.423-.021.066-.042.131-.065.2,0,.007-.005.014-.007.021L65.9,87.1l-.021.054c-.021.056-.042.112-.065.168s-.054.135-.082.2-.051.119-.077.178c0,.011-.009.019-.012.03-.03.063-.058.126-.087.187s-.061.129-.095.194c-.063.128-.131.255-.2.379l-.095.168a10.28,10.28,0,0,1-.893,1.3c-.044.058-.089.114-.136.168-.065.079-.131.156-.2.231s-.119.133-.18.2c-.168.18-.339.352-.514.512-.035.035-.072.066-.109.1-.059.054-.119.107-.18.157s-.1.082-.145.122c-.126.1-.252.2-.379.3-.053.04-.107.079-.161.115-.087.063-.177.122-.266.18-.049.033-.1.065-.151.094-.178.11-.358.212-.537.3-.044.023-.087.044-.131.065l-.136.063q-.087.039-.173.073a.545.545,0,0,1-.068.026c-.068.028-.138.054-.206.077-.086.031-.173.058-.259.082-.06.018-.121.033-.18.047a.024.024,0,0,1-.012,0c-.06.014-.119.028-.178.038a.415.415,0,0,1-.047.009c-.049.009-.1.018-.147.023-.07.011-.14.019-.21.023a.507.507,0,0,1-.072.005c-.056,0-.112.005-.166.005h-.005q-.081,0-.163-.005a.375.375,0,0,1-.063-.005c-.049,0-.1-.007-.152-.014a.217.217,0,0,1-.033,0c-.065-.009-.129-.019-.2-.031s-.112-.021-.17-.035a5.014,5.014,0,0,1-.918-.31,6.694,6.694,0,0,1-.8-.423c-.135-.08-.268-.168-.4-.262-.067-.047-.133-.094-.2-.143q-.312-.228-.617-.5c-.056-.051-.112-.1-.168-.154s-.112-.1-.166-.154q-.2-.2-.4-.409-.076-.081-.152-.168c-.14-.157-.276-.32-.406-.49-.051-.061-.1-.124-.145-.187q-.265-.351-.5-.733c-.042-.068-.084-.138-.124-.206s-.1-.166-.143-.25a9.535,9.535,0,0,1-.476-.979c-.021-.049-.042-.1-.06-.147s-.053-.128-.075-.191q-.052-.139-.1-.278c-.031-.093-.061-.187-.091-.281s-.054-.182-.079-.275-.054-.2-.077-.3c0-.011-.005-.021-.007-.031q-.05-.21-.089-.425c-.035-.189-.063-.381-.084-.575-.009-.061-.014-.122-.019-.184s-.012-.128-.016-.192c-.009-.117-.014-.236-.018-.355,0-.077,0-.154,0-.231l1.137,2.235,1.953.852,2.31.208,1.714.156h.011l1.6.145,3.573.322Z" transform="translate(-43.333 -69.754)"/></g><g class="b" transform="translate(0 0)"><path class="e" d="M64.94,13.659A9.791,9.791,0,0,1,63.6,15.845c-.031.039-.063.077-.1.115a9.8,9.8,0,0,1-4.177,2.946,9.527,9.527,0,0,1-1.336.385q-.459.1-.934.152a10.123,10.123,0,0,1-1.11.061,9.764,9.764,0,0,1-1.266-.082,9.237,9.237,0,0,1-1.191-.227c-.222-.056-.439-.121-.654-.192s-.418-.147-.622-.231v-.722a7.12,7.12,0,0,1,7.114-7.119h.007a7.2,7.2,0,0,1,1.577.175,7.141,7.141,0,0,1,4.025,2.553Z" transform="translate(-43.336 -9.073)"/></g><g class="b" transform="translate(0 0)"><path class="e" d="M115.4,21.076v1.4a10.915,10.915,0,0,1-2.945-3.483s0-.005,0-.007a10.846,10.846,0,0,1-1.261-4.408,7.125,7.125,0,0,1,4.209,6.5Z" transform="translate(-92.28 -12.099)"/></g><g class="b" transform="translate(0 0)"><path class="e" d="M53.049,55.023c-.075.131-.143.266-.212.4-.026.054-.052.112-.079.168a5.927,5.927,0,0,0-.542,2.2c0,.019,0,.04,0,.06V55.109c0-.1,0-.194,0-.289C52.495,54.892,52.771,54.962,53.049,55.023Z" transform="translate(-43.334 -45.496)"/></g><g class="b" transform="translate(0 0)"><path class="e" d="M131.054,55.026c.106.186.2.376.291.572a5.859,5.859,0,0,1,.544,2.257V55.111c0-.1,0-.193,0-.287C131.609,54.9,131.333,54.964,131.054,55.026Z" transform="translate(-108.764 -45.5)"/></g><g class="b" transform="translate(0 0)"><path class="e" d="M69.672,58.929a.06.06,0,0,0-.053-.06,19.06,19.06,0,0,0-2.6-.194,29.345,29.345,0,0,0-3.48.434H63.26c-.145,0-.61-.094-1.2-.194a14.492,14.492,0,0,0-2.275-.24,19.133,19.133,0,0,0-2.226.143c-.178.021-.31.04-.378.051a.06.06,0,0,0-.053.06l-.014.743a.065.065,0,0,0,.04.06l.084.03c.124.047.114,2.287.782,2.847.4.33.75.519,2.238.519a2.094,2.094,0,0,0,1.918-.927,6.9,6.9,0,0,0,.7-1.677A.583.583,0,0,1,63.391,60H63.4a.578.578,0,0,1,.526.528,6.9,6.9,0,0,0,.7,1.677,2.094,2.094,0,0,0,1.918.927c1.488,0,1.841-.189,2.238-.519.668-.56.658-2.8.782-2.847l.084-.03a.065.065,0,0,0,.04-.06Zm-7.5,2.651a1.953,1.953,0,0,1-1.579,1.226c-2.387.121-2.5-.546-2.651-1.074a3.635,3.635,0,0,1-.135-1.52c.063-.528.2-.838.436-.993a1.087,1.087,0,0,1,.5-.173,9.583,9.583,0,0,1,1.315-.061,6.615,6.615,0,0,1,1.061.082c.85.136,1.423.425,1.423.71A5.3,5.3,0,0,1,62.172,61.58Zm6.681.152c-.154.528-.264,1.194-2.651,1.074a1.953,1.953,0,0,1-1.579-1.226,5.294,5.294,0,0,1-.372-1.8c0-.392,1.088-.792,2.485-.792s1.621.1,1.817.234c.239.156.372.465.435.993A3.628,3.628,0,0,1,68.854,61.732Z" transform="translate(-47.397 -48.696)"/></g><g class="b" transform="translate(0 0)"><path class="e" d="M59.343,74.976l0,1.724,0,.6v.474l0,1.574v0l0,0h0l-.005,0-6.877-3.5c0-.011-.005-.021-.007-.031q-.05-.21-.089-.425c-.035-.189-.063-.381-.084-.575-.009-.061-.014-.122-.019-.184s-.012-.128-.016-.192c-.009-.117-.014-.236-.018-.355,0-.077,0-.154,0-.231v-2.09c0,.03,0,.06,0,.089a6.958,6.958,0,0,0,.25,1.63,7.073,7.073,0,0,0,.446,1.2v0a2.853,2.853,0,0,0,1.637,1.7c.035.005.072.009.107.012a6.149,6.149,0,0,0,.684.038,4.551,4.551,0,0,0,2.182-1.007l.011-.005c.026-.016.053-.031.075-.047a.133.133,0,0,1,.021-.012,3.537,3.537,0,0,1,1.7-.393h.014Z" transform="translate(-43.334 -59.558)"/><path class="e" d="M101.168,71.764l0,2.09a8.573,8.573,0,0,1-.14,1.537c-.037.2-.079.4-.128.593l-1.614,2.331L94.05,79.351h0l0,0v0l-.005-4.376h.014a3.546,3.546,0,0,1,1.7.393l.019.012.077.047.009.005a4.56,4.56,0,0,0,2.182,1.008,6.145,6.145,0,0,0,.684-.038c.037,0,.072-.007.109-.012a2.851,2.851,0,0,0,1.635-1.7v0a7.073,7.073,0,0,0,.446-1.2,6.881,6.881,0,0,0,.25-1.652C101.168,71.808,101.168,71.787,101.168,71.764Z" transform="translate(-78.047 -59.558)"/></g><g class="b"><ellipse class="c" cx="1.744" cy="0.539" rx="1.744" ry="0.539" transform="translate(14.256 17.141)"/></g><g class="b" transform="translate(0 0)"><path class="f" d="M60.505,155.174v9.619h-.743v-9.077c.1-.08.2-.159.3-.234C60.208,155.374,60.355,155.272,60.505,155.174Z" transform="translate(-49.598 -128.782)"/><path class="f" d="M124.021,155.185V164.8h.743v-9.075Z" transform="translate(-102.928 -128.791)"/></g><g class="b" transform="translate(0 0)"><g transform="translate(13.966 25.803)"><path class="g" d="M82.113,151.713l2.034,2.438,2.034-2.438Z" transform="translate(-82.113 -151.713)"/><path class="g" d="M88.2,170.828H87l.869-11.191c.037.142.631.142.668,0l.869,11.191Z" transform="translate(-86.17 -158.289)"/></g><g transform="translate(12.224 24.227)"><path class="f" d="M75.647,144.044l-.005.009,0,0-.845,1.418-.789,1.322-2.135-2.967c.068-.049.136-.1.2-.156l0,0a5.816,5.816,0,0,0,1.126-1.189l2.439,1.553Z" transform="translate(-71.872 -142.481)"/><path class="f" d="M97.846,143.8l-2.135,2.967-.789-1.322-.846-1.418-.007-.012,2.455-1.563a5.865,5.865,0,0,0,1.128,1.2C97.717,143.7,97.781,143.748,97.846,143.8Z" transform="translate(-90.294 -142.447)"/></g></g></svg>