<svg width="17" height="19" viewBox="0 0 17 19" fill="none" xmlns="http://www.w3.org/2000/svg">
<path d="M10.0035 9.51214L16.6885 2.20508C17.1038 1.75149 17.1038 1.01551 16.6885 0.56192C16.2732 0.107941 15.6006 0.107941 15.1852 0.56192L8.50018 7.86898L1.81478 0.56192C1.39945 0.107941 0.726835 0.107941 0.311501 0.56192C-0.103834 1.01551 -0.103834 1.75149 0.311501 2.20508L6.99689 9.51214L0.311501 16.8192C-0.103834 17.2728 -0.103834 18.0088 0.311501 18.4624C0.519168 18.689 0.791332 18.8025 1.06314 18.8025C1.33495 18.8025 1.60712 18.689 1.81478 18.462L8.50018 11.1549L15.1852 18.462C15.3929 18.689 15.665 18.8025 15.9369 18.8025C16.2087 18.8025 16.4808 18.689 16.6885 18.462C17.1038 18.0084 17.1038 17.2724 16.6885 16.8188L10.0035 9.51214Z" fill="white"/>
</svg>
