<svg width="17" height="19" viewBox="0 0 17 19" fill="none" xmlns="http://www.w3.org/2000/svg">
<path d="M10.0035 9.39817L16.6885 2.28981C17.1038 1.84855 17.1038 1.13259 16.6885 0.691334C16.2732 0.249699 15.6006 0.249699 15.1852 0.691334L8.50018 7.7997L1.81478 0.691334C1.39945 0.249699 0.726835 0.249699 0.311501 0.691334C-0.103834 1.13259 -0.103834 1.84855 0.311501 2.28981L6.99689 9.39817L0.311501 16.5065C-0.103834 16.9478 -0.103834 17.6638 0.311501 18.105C0.519168 18.3255 0.791332 18.4359 1.06314 18.4359C1.33495 18.4359 1.60712 18.3255 1.81478 18.1046L8.50018 10.9963L15.1852 18.1046C15.3929 18.3255 15.665 18.4359 15.9369 18.4359C16.2087 18.4359 16.4808 18.3255 16.6885 18.1046C17.1038 17.6634 17.1038 16.9474 16.6885 16.5062L10.0035 9.39817Z" fill="#BDBDBD"/>
</svg>
