<svg width="97" height="62" viewBox="0 0 97 62" fill="none" xmlns="http://www.w3.org/2000/svg">
<path d="M30.0157 18.6198H24.6843V17.6958H30.0157V18.6198ZM39.9782 8.56868V25H38.8794V13.0386C38.8794 11.8899 38.9211 10.762 39.0043 9.65494L38.6547 9.97957C38.5298 10.0878 37.3728 10.9951 35.1836 12.7015L34.5469 11.9149L39.0043 8.56868H39.9782ZM57.0056 23.9262V25H46.7298V24.0136L51.0999 19.4438C52.3401 18.1536 53.1975 17.1797 53.6719 16.5221C54.6375 15.2153 55.1203 13.9293 55.1203 12.664C55.1203 11.6818 54.7957 10.8827 54.1464 10.2667C53.5055 9.65078 52.6731 9.3428 51.6492 9.3428C50.2758 9.3428 48.9648 9.84223 47.7162 10.8411L47.1044 10.067C48.4695 8.90996 49.9928 8.33145 51.6742 8.33145C53.1059 8.33145 54.2296 8.71434 55.0454 9.48014C55.8694 10.2376 56.2815 11.2906 56.2815 12.6391C56.2815 13.7378 56.0026 14.7949 55.4449 15.8104C54.8955 16.8176 53.8925 18.0662 52.4358 19.5562L48.2156 23.8763V23.9262H57.0056Z" fill="#FB5D5D"/>
<path opacity="0.425315" fill-rule="evenodd" clip-rule="evenodd" d="M68.575 18.0998L64.4853 22.3984L60.3955 18.101H63.0418V13.3261H65.9287V18.101L68.575 18.0998Z" fill="#FB5D5D"/>
<path d="M1 41.7768C15.9285 45.4805 20.6069 36.1023 33.9547 34.4465C43.2204 33.2971 47.6626 41.9037 55.5457 43.4684C56.8457 43.7264 58.2174 43.697 59.5229 43.4684C64.6816 42.5649 69.6529 39.5548 74.8639 40.0852C80.6992 40.6791 83.2624 49.9479 86.2276 53.0541C87.7466 54.6453 90.0155 55.3095 91.9094 56.4373" stroke="url(#paint0_linear)" stroke-width="1.02904"/>
<path d="M92.4508 54.8954C93.8675 54.8954 95.0293 56.0371 95.0293 57.4621C95.0293 58.887 93.8675 60.0288 92.4508 60.0288C91.0342 60.0288 89.8723 58.887 89.8723 57.4621C89.8723 56.0371 91.0342 54.8954 92.4508 54.8954Z" fill="#FB5D5D" stroke="#EFF3FC" stroke-width="2.05808"/>
<defs>
<linearGradient id="paint0_linear" x1="89.3171" y1="45.0742" x2="1" y2="45.0742" gradientUnits="userSpaceOnUse">
<stop stop-color="#FC297D"/>
<stop offset="1" stop-color="#E36674"/>
</linearGradient>
</defs>
</svg>
