<svg width="27" height="33" viewBox="0 0 27 33" fill="none" xmlns="http://www.w3.org/2000/svg">
<path fill-rule="evenodd" clip-rule="evenodd" d="M5 12H23V10H5V12ZM5 7H23V5H5V7ZM5 0V2H23V0H5Z" fill="#3B3B3B"/>
<path d="M6.63296 22.8504C6.63296 22.638 6.63296 22.4695 6.63296 22.3448C6.63633 22.2167 6.65993 21.6994 6.70374 20.7927H6.6633L4.94439 26H3.65521L2.05258 20.7826H2.01213C2.06943 21.878 2.09808 22.5858 2.09808 22.906V26H0.839232V19.3468H2.75531L4.33266 24.4328H4.35794L6.02629 19.3468H7.94742V26H6.63296V22.8504ZM12.5909 22.8807C12.5875 22.5403 12.4999 22.2757 12.328 22.087C12.1561 21.8982 11.9219 21.8038 11.6253 21.8038C11.332 21.8038 11.1012 21.8982 10.9326 22.087C10.7641 22.2723 10.6681 22.5369 10.6445 22.8807H12.5909ZM13.6071 25.7321C13.1285 25.9714 12.5319 26.091 11.8174 26.091C10.9984 26.091 10.358 25.8669 9.89624 25.4186C9.43787 24.967 9.20868 24.3199 9.20868 23.4772C9.20868 22.6346 9.42101 21.9808 9.84569 21.5157C10.2771 21.0506 10.8585 20.818 11.5899 20.818C12.3246 20.818 12.8925 21.0236 13.2936 21.4348C13.6947 21.846 13.8952 22.4105 13.8952 23.1284V23.8008H10.6141C10.6276 24.1985 10.7439 24.5086 10.963 24.731C11.1854 24.9501 11.4921 25.0597 11.8831 25.0597C12.4662 25.0597 13.0408 24.9265 13.6071 24.6603V25.7321ZM19.7215 22.6835V26H18.3313V23.0273C18.3313 22.6566 18.2655 22.3819 18.1341 22.2032C18.0026 22.0212 17.7954 21.9302 17.5122 21.9302C17.128 21.9302 16.8483 22.06 16.673 22.3195C16.4978 22.5757 16.4101 23.0054 16.4101 23.6087V26H15.0249V20.9141H16.0866L16.2736 21.5662H16.3495C16.5011 21.3236 16.7118 21.1382 16.9814 21.0101C17.2544 20.882 17.5645 20.818 17.9116 20.818C18.5048 20.818 18.9548 20.9781 19.2615 21.2983C19.5682 21.6151 19.7215 22.0768 19.7215 22.6835ZM25.8143 26H24.7526L24.5655 25.3478H24.4897C24.3414 25.5871 24.1307 25.7708 23.8577 25.8989C23.5847 26.027 23.2747 26.091 22.9275 26.091C22.3343 26.091 21.8844 25.9326 21.5777 25.6158C21.2743 25.2956 21.1227 24.8338 21.1227 24.2305V20.9141H22.5079V23.8868C22.5079 24.2541 22.5736 24.5288 22.7051 24.7108C22.8365 24.8928 23.0438 24.9838 23.3269 24.9838C23.7145 24.9838 23.9942 24.8557 24.1661 24.5996C24.3414 24.3401 24.429 23.9087 24.429 23.3054V20.9141H25.8143V26Z" fill="#3B3B3B"/>
</svg>
