<svg width="98" height="69" viewBox="0 0 98 69" fill="none" xmlns="http://www.w3.org/2000/svg">
<path d="M23.3005 11.5403V16.4098H28.1824V17.3337H23.3005V22.1907H22.389V17.3337H17.532V16.4098H22.389V11.5403H23.3005ZM37.0941 8.56868V25H35.9954V13.0386C35.9954 11.8899 36.037 10.762 36.1202 9.65494L35.7706 9.97957C35.6458 10.0878 34.4887 10.9951 32.2996 12.7015L31.6628 11.9149L36.1202 8.56868H37.0941ZM48.8276 8.33145C50.3425 8.33145 51.512 8.68937 52.3361 9.40522C53.1601 10.1211 53.5722 11.1324 53.5722 12.4393C53.5722 13.4465 53.2517 14.3038 52.6108 15.0114C51.9698 15.7106 51.1125 16.1559 50.0387 16.3473V16.4098C51.3622 16.5762 52.3652 16.9966 53.0478 17.6708C53.7387 18.3451 54.0841 19.2524 54.0841 20.3927C54.0841 21.941 53.5555 23.1355 52.4984 23.9762C51.4496 24.8086 49.9513 25.2247 48.0035 25.2247C46.3221 25.2247 44.8654 24.9126 43.6335 24.2883V23.1771C44.2578 23.5184 44.957 23.7806 45.7311 23.9637C46.5052 24.1468 47.246 24.2384 47.9536 24.2384C49.5934 24.2384 50.8336 23.9096 51.6743 23.252C52.515 22.5861 52.9354 21.633 52.9354 20.3927C52.9354 19.3023 52.5067 18.4658 51.6494 17.8831C50.792 17.3004 49.5434 17.0091 47.9036 17.0091H46.1306V15.9353H47.9286C49.2937 15.9353 50.3758 15.6107 51.1749 14.9614C51.974 14.3121 52.3735 13.434 52.3735 12.3269C52.3735 11.4113 52.0489 10.6788 51.3996 10.1294C50.7504 9.58003 49.9014 9.30534 48.8525 9.30534C48.0285 9.30534 47.2793 9.42187 46.6051 9.65494C45.9309 9.87969 45.1776 10.2667 44.3452 10.8161L43.7958 10.067C44.4118 9.54257 45.1776 9.12221 46.0932 8.80591C47.0088 8.4896 47.9203 8.33145 48.8276 8.33145Z" fill="#17BF5F"/>
<path opacity="0.425315" fill-rule="evenodd" clip-rule="evenodd" d="M68.575 17.6249L64.4853 13.3262L60.3955 17.6236H63.0418V22.3985H65.9287V17.6236L68.575 17.6249Z" fill="#17BF5F"/>
<path d="M1.0001 56.9399C20.4269 48.1937 39.2024 54.427 58.3993 52.7346C64.9598 52.1562 68.1824 47.2936 75.2464 42.8723C80.7331 39.4381 86.126 39.8119 91.6912 39.0601" stroke="url(#paint0_linear)" stroke-width="1.02752"/>
<path d="M93.4533 41.3357C94.8679 41.3357 96.0278 40.1954 96.0278 38.7726C96.0278 37.3499 94.8679 36.2095 93.4533 36.2095C92.0386 36.2095 90.8787 37.3499 90.8787 38.7726C90.8787 40.1954 92.0386 41.3357 93.4533 41.3357Z" fill="#17BF5F" stroke="#EFF3FC" stroke-width="2.05503"/>
<defs>
<linearGradient id="paint0_linear" x1="70.2217" y1="43.6496" x2="26.1269" y2="88.9293" gradientUnits="userSpaceOnUse">
<stop stop-color="#B4EC51"/>
<stop offset="1" stop-color="#17BF5F"/>
</linearGradient>
</defs>
</svg>
