<svg width="90" height="90" viewBox="0 0 90 90" fill="none" xmlns="http://www.w3.org/2000/svg">
<g filter="url(#filter0_d)">
<rect x="13" y="8" width="64" height="64" rx="32" fill="#1C75BB"/>
</g>
<path d="M31.1232 43.5371C30.8697 44.4212 30.9455 45.1326 31.2604 45.7243L31.4137 46.0298L33.0227 45.3182L32.9252 45.1033C32.672 44.5721 32.6401 44.0264 32.8676 43.3407L32.8882 43.2777C33.116 42.5843 33.3862 41.7601 32.9857 40.8805C32.5357 39.8907 31.4107 39.3407 29.8125 40.0471C28.9533 40.4256 28.3359 40.9878 28.0117 41.4311L29.0138 42.5471C29.2357 42.1944 29.652 41.8373 30.0511 41.6614C30.6684 41.417 31.0719 41.5701 31.2604 41.9867C31.4462 42.3943 31.3046 42.9123 31.1232 43.5371Z" fill="white"/>
<path d="M31.8438 47.8129C32.1268 48.4314 32.774 48.7022 33.4146 48.4224C34.0671 48.1332 34.2947 47.4764 34.0105 46.8571C33.7125 46.2297 33.0826 45.9656 32.428 46.2536C31.7996 46.53 31.5572 47.1778 31.8438 47.8129Z" fill="white"/>
<path d="M42.7658 51.0116C43.2597 53.0362 45.0565 54.2108 47.1487 53.7133C49.2861 53.2051 50.3365 51.3465 49.8385 49.3291C49.2933 47.2785 47.5423 46.1299 45.4114 46.6379C43.3542 47.1255 42.2576 48.952 42.7658 51.0116Z" fill="white"/>
<path d="M47.5561 43.4484C47.0857 41.7068 47.3041 40.0471 48.3747 38.1061L48.4547 37.962C49.5405 35.9984 50.8355 33.657 50.1272 30.7781C49.3315 27.5469 46.2614 25.2742 41.0476 26.519C38.2454 27.187 36.0635 28.5277 34.8443 29.6854L37.226 33.6024C38.0829 32.6598 39.5487 31.8159 40.8535 31.5047C42.8472 31.1094 43.9754 31.7868 44.3113 33.1494C44.6369 34.4707 43.914 35.9588 43.0142 37.7384C41.7551 40.2642 41.5773 42.4451 42.1839 44.4016L42.4726 45.402L47.7293 44.1503L47.5561 43.4484Z" fill="white"/>
<path d="M56.0498 41.65C57.1491 41.8944 58.0591 41.2716 58.2953 40.2347C58.5157 39.1684 57.9741 38.2516 56.8766 38.0075C55.8187 37.7745 54.8945 38.3697 54.6526 39.4306C54.4176 40.4747 54.972 41.4138 56.0498 41.65Z" fill="white"/>
<path d="M60.2687 34.7004C61.2213 34.0385 62.3561 33.2503 62.6946 31.7628C63.0721 30.1011 62.1801 28.3714 59.501 27.7813C58.057 27.465 56.743 27.5955 55.918 27.8559L56.1134 30.1908C56.7254 29.9464 57.5917 29.8833 58.2631 30.0308C59.2723 30.2981 59.6332 30.8578 59.4745 31.5606C59.3191 32.2413 58.6421 32.7656 57.8193 33.3821C56.6603 34.2627 56.0806 35.2309 55.9076 36.2623L55.8083 36.7884L58.5139 37.3819L58.5968 37.0214C58.7775 36.1172 59.2631 35.402 60.2016 34.7469L60.2687 34.7004Z" fill="white"/>
<defs>
<filter id="filter0_d" x="0.358025" y="0.0987654" width="89.284" height="89.284" filterUnits="userSpaceOnUse" color-interpolation-filters="sRGB">
<feFlood flood-opacity="0" result="BackgroundImageFix"/>
<feColorMatrix in="SourceAlpha" type="matrix" values="0 0 0 0 0 0 0 0 0 0 0 0 0 0 0 0 0 0 127 0"/>
<feOffset dy="4.74074"/>
<feGaussianBlur stdDeviation="6.32099"/>
<feColorMatrix type="matrix" values="0 0 0 0 0 0 0 0 0 0.302782 0 0 0 0 0.713701 0 0 0 0.378935 0"/>
<feBlend mode="normal" in2="BackgroundImageFix" result="effect1_dropShadow"/>
<feBlend mode="normal" in="SourceGraphic" in2="effect1_dropShadow" result="shape"/>
</filter>
</defs>
</svg>
