<svg width="76" height="76" viewBox="0 0 76 76" fill="none" xmlns="http://www.w3.org/2000/svg">
<rect width="76" height="76" rx="4.71" fill="#FAD961"/>
<path d="M27.25 22.2893V20.962C27.25 19.4642 28.4642 18.25 29.9614 18.25H46.5588C48.0567 18.25 49.2708 19.4642 49.2708 20.962V22.29H47.9102H47.9095H47.6595V22.54V27.4169C47.6595 28.7416 47.3246 30.0441 46.6853 31.2043L46.6853 31.2043L43.5233 36.9451C43.163 37.5993 43.1735 38.3961 43.5526 39.0411C43.5526 39.0411 43.5527 39.0412 43.5527 39.0412L46.5788 44.1945L46.5789 44.1946C47.287 45.3996 47.6602 46.7721 47.6602 48.1697V53.46V53.71H47.9102H49.2708V55.0385C49.2708 56.5357 48.0567 57.75 46.5588 57.75H29.9614C28.4642 57.75 27.25 56.5358 27.25 55.0385V53.71H28.61H28.86V53.46V48.1697C28.86 46.772 29.2332 45.3995 29.9413 44.1945L29.9413 44.1944L32.9786 39.0213L32.9786 39.0213C33.3503 38.3881 33.3615 37.6068 33.0073 36.9636L33.0073 36.9636L29.8348 31.203L29.8348 31.2029C29.1955 30.0434 28.8606 28.7403 28.8606 27.4156V22.5393V22.2893H28.6106H27.25ZM45.5919 27.0071V26.7571H45.5907V22.5393V22.2893H45.3407H31.1784H30.9284V22.5393V27.0071C30.9284 28.2514 31.2433 29.4752 31.8437 30.5649C31.8437 30.5649 31.8437 30.5649 31.8437 30.565L35.1766 36.6161L35.1767 36.6162C35.6611 37.4954 35.6463 38.5641 35.1381 39.429L35.1381 39.4291L31.944 44.8688L31.9439 44.8688C31.2797 46.0007 30.929 47.2903 30.929 48.6029V53.4607V53.7107H31.179H32.976H33.1038L33.1786 53.6071C33.5485 53.095 34.2164 52.6341 35.1064 52.3009C35.9924 51.9693 37.0791 51.7718 38.2608 51.7718C39.4421 51.7718 40.5286 51.9693 41.4145 52.301C42.3044 52.6341 42.9723 53.0951 43.3423 53.6071L43.4171 53.7107H43.5449H45.3412H45.5912V53.4607V48.6029C45.5912 47.2902 45.2406 46.0006 44.5763 44.8688L44.5763 44.8688L41.3822 39.4291C40.874 38.5635 40.8598 37.4954 41.3437 36.6161L44.6766 30.565C45.277 29.4752 45.5919 28.2514 45.5919 27.0071Z" fill="white" stroke="#FAD961" stroke-width="0.5"/>
<path d="M34.785 31.1572L37.5379 36.1654L37.5379 36.1654C37.6829 36.4292 37.9599 36.593 38.2605 36.593C38.5609 36.593 38.8381 36.4288 38.9831 36.1654L34.785 31.1572ZM34.785 31.1572H41.7354L38.9832 36.1653L34.785 31.1572Z" fill="white" stroke="#FAD961" stroke-width="0.5"/>
</svg>
