<svg width="18" height="18" viewBox="0 0 18 18" fill="none" xmlns="http://www.w3.org/2000/svg">
<path fill-rule="evenodd" clip-rule="evenodd" d="M17.5999 15.642L13.8895 11.9317C14.7837 10.641 15.231 9.202 15.231 7.61561C15.231 6.58437 15.0308 5.59809 14.6304 4.65702C14.2303 3.71579 13.6893 2.90453 13.0078 2.22303C12.3264 1.54153 11.5152 1.0006 10.5742 0.600418C9.63286 0.200127 8.64668 0 7.61544 0C6.58428 0 5.59802 0.200127 4.65696 0.600418C3.71575 1.0006 2.90449 1.54153 2.223 2.22303C1.54143 2.90453 1.00058 3.71595 0.600373 4.65702C0.200124 5.59821 0 6.58437 0 7.61561C0 8.64678 0.200124 9.63272 0.600373 10.5741C1.00055 11.5151 1.54143 12.3263 2.223 13.0078C2.90449 13.6895 3.7159 14.2302 4.65696 14.6306C5.59813 15.0308 6.58428 15.2309 7.61544 15.2309C9.20215 15.2309 10.6409 14.7836 11.9317 13.8895L15.642 17.5889C15.9017 17.8629 16.2257 18 16.6155 18C16.9905 18 17.3152 17.863 17.589 17.5889C17.8629 17.315 18 16.9905 18 16.6155C18.0001 16.2335 17.8667 15.9088 17.5999 15.642ZM11.0384 11.039C10.0901 11.9875 8.94891 12.4617 7.61465 12.4617C6.28062 12.4617 5.13947 11.9874 4.1911 11.039C3.24272 10.0907 2.76855 8.94972 2.76855 7.61545C2.76855 6.28139 3.24284 5.14004 4.1911 4.19185C5.13928 3.24342 6.28062 2.76929 7.61465 2.76929C8.94876 2.76929 10.0899 3.24361 11.0384 4.19185C11.9868 5.14004 12.461 6.28139 12.461 7.61545C12.461 8.94972 11.9867 10.0907 11.0384 11.039Z" fill="#E0E0E0"/>
</svg>
