<svg width="97" height="53" viewBox="0 0 97 53" fill="none" xmlns="http://www.w3.org/2000/svg">
<path d="M34.076 5.5403V10.4098H38.958V11.3337H34.076V16.1907H33.1646V11.3337H28.3076V10.4098H33.1646V5.5403H34.076ZM49.1307 13.8434V9.1487C49.1307 6.82634 49.1848 4.92433 49.293 3.44268H49.2056C49.0725 3.6924 48.6105 4.39993 47.8197 5.56527L42.0263 13.8434H49.1307ZM53.0263 13.8434V14.8048H50.192V19H49.1307V14.8048H40.6903V14.0556L48.8311 2.48128H50.192V13.8434H53.0263Z" fill="#17BF5F"/>
<path d="M1 44.5643C15.9285 40.8605 20.6069 50.2387 33.9547 51.8945C43.2204 53.0439 47.6626 44.4373 55.5457 42.8727C56.8457 42.6147 58.2174 42.644 59.5229 42.8727C64.6816 43.7761 69.6529 46.7863 74.8639 46.2559C80.6992 45.6619 83.2624 36.3932 86.2276 33.287C87.7466 31.6958 90.0155 31.0315 91.9094 29.9038" stroke="url(#paint0_linear)" stroke-width="1.02904"/>
<path opacity="0.425315" fill-rule="evenodd" clip-rule="evenodd" d="M68.575 10.6249L64.4853 6.32617L60.3955 10.6236H63.0418V15.3985H65.9287V10.6236L68.575 10.6249Z" fill="#17BF5F"/>
<path d="M92.4508 31.4457C93.8675 31.4457 95.0293 30.3039 95.0293 28.879C95.0293 27.454 93.8675 26.3123 92.4508 26.3123C91.0342 26.3123 89.8723 27.454 89.8723 28.879C89.8723 30.3039 91.0342 31.4457 92.4508 31.4457Z" fill="#17BF5F" stroke="#EFF3FC" stroke-width="2.05808"/>
<defs>
<linearGradient id="paint0_linear" x1="89.3171" y1="41.2668" x2="1" y2="41.2668" gradientUnits="userSpaceOnUse">
<stop stop-color="#B4EC51"/>
<stop offset="1" stop-color="#17BF5F"/>
</linearGradient>
</defs>
</svg>
